<svg width="77" height="76" viewBox="0 0 77 76" fill="none" xmlns="http://www.w3.org/2000/svg">
<path d="M60.6695 22.4902V31.8867C60.6695 31.8867 54.3453 31.9182 54.3136 31.8867V22.4902H44.7797C44.7797 22.4902 44.8114 16.2363 44.7797 16.2049H54.3136V6.77692H60.6695V16.2049H70.2034V22.4902H60.6695ZM51.1356 35.0608V25.6329H41.6017V16.2049H16.178C12.6822 16.2049 9.82204 19.0333 9.82204 22.4902V60.2021C9.82204 63.659 12.6822 66.4874 16.178 66.4874H54.3136C57.8093 66.4874 60.6695 63.659 60.6695 60.2021V35.0608H51.1356ZM16.178 60.2021L25.7119 47.6314L32.0678 57.0594L41.6017 44.4888L54.3136 60.2021H16.178Z" fill="#D9D9D9"/>
</svg>